<svg width="442" height="17" viewBox="0 0 442 17" fill="none" xmlns="http://www.w3.org/2000/svg">
<g clip-path="url(#clip0_794_457)">
<mask id="path-1-inside-1_794_457" fill="white">
<path d="M0 6C0 2.68629 2.68629 0 6 0H115V17H6C2.68629 17 0 14.3137 0 11V6Z"/>
</mask>
<path d="M0 6C0 2.68629 2.68629 0 6 0H115V17H6C2.68629 17 0 14.3137 0 11V6Z" fill="#FCFEFA"/>
<rect width="115" height="17" fill="#B8D8BA"/>
</g>
<path d="M-1 6C-1 2.13401 2.13401 -1 6 -1H115V1H6C3.23858 1 1 3.23858 1 6H-1ZM115 18H6C2.13401 18 -1 14.866 -1 11H1C1 13.7614 3.23858 16 6 16H115V18ZM6 18C2.13401 18 -1 14.866 -1 11V6C-1 2.13401 2.13401 -1 6 -1V1C3.23858 1 1 3.23858 1 6V11C1 13.7614 3.23858 16 6 16V18ZM115 0V17V0Z" fill="#1C7C54" mask="url(#path-1-inside-1_794_457)"/>
<g clip-path="url(#clip1_794_457)">
<rect width="116" height="17" transform="translate(115)" fill="#FCFEFA"/>
<mask id="path-3-inside-2_794_457" fill="white">
<path d="M115 0H173V17H115V0Z"/>
</mask>
<path d="M115 0H173V17H115V0Z" fill="#B8D8BA"/>
<path d="M115 1H173V-1H115V1ZM173 16H115V18H173V16Z" fill="#1C7C54" mask="url(#path-3-inside-2_794_457)"/>
<mask id="path-5-inside-3_794_457" fill="white">
<path d="M173 0H231V17H173V0Z"/>
</mask>
<path d="M173 1H231V-1H173V1ZM231 16H173V18H231V16Z" fill="#1C7C54" mask="url(#path-5-inside-3_794_457)"/>
</g>
<g clip-path="url(#clip2_794_457)">
<mask id="path-9-inside-5_794_457" fill="white">
<path d="M231 0H348V17H231V0Z"/>
</mask>
<path d="M231 0H348V17H231V0Z" fill="#FCFEFA"/>
</g>
<path d="M231 1H348V-1H231V1ZM348 16H231V18H348V16Z" fill="#1C7C54" mask="url(#path-9-inside-5_794_457)"/>
<path d="M348 0H349V-1H348V0ZM348 17V18H349V17H348ZM231 1H348V-1H231V1ZM347 0V17H349V0H347ZM348 16H231V18H348V16Z" fill="black" mask="url(#path-7-inside-4_794_457)"/>
<g clip-path="url(#clip3_794_457)">
<mask id="path-11-inside-6_794_457" fill="white">
<path d="M348 0H436C439.314 0 442 2.68629 442 6V11C442 14.3137 439.314 17 436 17H348V0Z"/>
</mask>
<path d="M348 0H436C439.314 0 442 2.68629 442 6V11C442 14.3137 439.314 17 436 17H348V0Z" fill="#FCFEFA"/>
</g>
<path d="M348 -1H436C439.866 -1 443 2.13401 443 6H441C441 3.23858 438.761 1 436 1H348V-1ZM443 11C443 14.866 439.866 18 436 18H348V16H436C438.761 16 441 13.7614 441 11H443ZM348 17V0V17ZM436 -1C439.866 -1 443 2.13401 443 6V11C443 14.866 439.866 18 436 18V16C438.761 16 441 13.7614 441 11V6C441 3.23858 438.761 1 436 1V-1Z" fill="#1C7C54" mask="url(#path-11-inside-6_794_457)"/>
<defs>
<clipPath id="clip0_794_457">
<path d="M0 6C0 2.68629 2.68629 0 6 0H115V17H6C2.68629 17 0 14.3137 0 11V6Z" fill="white"/>
</clipPath>
<clipPath id="clip1_794_457">
<rect width="116" height="17" fill="white" transform="translate(115)"/>
</clipPath>
<clipPath id="clip2_794_457">
<path d="M231 0H348V17H231V0Z" fill="white"/>
</clipPath>
<clipPath id="clip3_794_457">
<path d="M348 0H436C439.314 0 442 2.68629 442 6V11C442 14.3137 439.314 17 436 17H348V0Z" fill="white"/>
</clipPath>
</defs>
</svg>
